<svg xmlns="http://www.w3.org/2000/svg" version="1.1" xmlns:xlink="http://www.w3.org/1999/xlink" xmlns:svgjs="http://svgjs.dev/svgjs" width="1440" height="560" preserveAspectRatio="none" viewBox="0 0 1440 560"><g mask="url(&quot;#SvgjsMask1320&quot;)" fill="none"><rect width="1440" height="560" x="0" y="0" fill="url(&quot;#SvgjsLinearGradient1321&quot;)"></rect><path d="M1512 560L0 560 L0 289.2Q42.98 260.18, 72 303.16Q150.48 261.64, 192 340.12Q221.9 250.02, 312 279.93Q389.82 237.75, 432 315.57Q507.75 271.32, 552 347.07Q559.31 282.38, 624 289.7Q650.34 244.03, 696 270.37Q778.85 233.22, 816 316.06Q864.5 292.56, 888 341.07Q915.69 248.76, 1008 276.46Q1057.86 254.32, 1080 304.18Q1154.95 259.13, 1200 334.09Q1267.51 281.6, 1320 349.1Q1357.82 266.92, 1440 304.73Q1465.71 258.44, 1512 284.15z" fill="#182f5d"></path><path d="M1536 560L0 560 L0 419.07Q-1.7 345.37, 72 343.66Q128.73 328.39, 144 385.13Q223 344.13, 264 423.14Q272.05 359.19, 336 367.23Q377.57 336.8, 408 378.37Q461.87 360.24, 480 414.11Q510.32 324.43, 600 354.75Q648.48 331.23, 672 379.71Q727.35 363.06, 744 418.41Q794.83 349.24, 864 400.06Q892.16 356.23, 936 384.39Q974.96 303.35, 1056 342.3Q1107.36 321.66, 1128 373.02Q1192.94 365.96, 1200 430.9Q1228.18 387.08, 1272 415.26Q1293.63 364.89, 1344 386.52Q1364.46 334.98, 1416 355.44Q1483.99 303.43, 1536 371.42z" fill="#25467d"></path><path d="M1512 560L0 560 L0 450.01Q17.44 395.45, 72 412.9Q120.89 389.79, 144 438.68Q219.63 394.31, 264 469.95Q316.08 402.03, 384 454.12Q406.34 404.46, 456 426.8Q500.06 398.87, 528 442.93Q600.1 395.03, 648 467.13Q724.07 423.19, 768 499.26Q774.86 434.12, 840 440.98Q893.63 374.61, 960 428.24Q1022.66 418.9, 1032 481.56Q1082.85 412.41, 1152 463.26Q1233.9 425.16, 1272 507.07Q1326.33 441.4, 1392 495.73Q1416.38 400.12, 1512 424.5z" fill="#356cb1"></path><path d="M1488 560L0 560 L0 552.71Q11.62 492.33, 72 503.94Q99.45 459.39, 144 486.84Q226.2 449.04, 264 531.25Q306.74 501.99, 336 544.72Q382.52 519.24, 408 565.76Q440.48 478.24, 528 510.71Q552.06 462.77, 600 486.83Q663.66 478.49, 672 542.15Q726.42 476.57, 792 530.98Q870.7 489.68, 912 568.39Q917.23 501.62, 984 506.84Q1013.4 464.24, 1056 493.64Q1141.29 458.93, 1176 544.22Q1242.91 491.13, 1296 558.05Q1338.9 480.95, 1416 523.85Q1442.01 477.86, 1488 503.87z" fill="white"></path></g><defs><mask id="SvgjsMask1320"><rect width="1440" height="560" fill="#ffffff"></rect></mask><linearGradient x1="100%" y1="50%" x2="0%" y2="50%" gradientUnits="userSpaceOnUse" id="SvgjsLinearGradient1321"><stop stop-color="#0e2a47" offset="0"></stop><stop stop-color="rgba(25, 108, 216, 1)" offset="1"></stop></linearGradient></defs></svg>